<svg id="Layer_1" height="512" viewBox="0 0 90 90" width="512" xmlns="http://www.w3.org/2000/svg"><path d="m9.151 43.244v34.242c.214 3.01 2.433 5.453 5.453 5.453h16.885v-39.695z"/><path d="m58.733 43.244v39.695h16.886c3.021 0 5.452-2.434 5.452-5.453v-34.242z"/><path d="m62.104 15.111c3.255 0 5.156 2.504 5.109 4.223-.047 1.838-1.276 3.266-3.078 3.266h-11.167l2.547-3.137c2.401-2.914 4.209-4.352 6.589-4.352zm-35.255 0c2.386 0 4.188 1.438 6.589 4.352l2.547 3.137h-11.167c-1.803 0-3.031-1.428-3.078-3.266-.047-1.719 1.86-4.223 5.109-4.223zm-.719-7.968c-6.468 0-11.744 5.305-12.458 11.238-.166 1.387-.047 2.848.359 4.254h-3.952c-2.62 0-4.729 2.203-4.729 4.943v6.121c0 2.734 2.109 4.936 4.729 4.936h70.061c2.619 0 4.734-2.201 4.734-4.936v-6.121c0-2.74-2.115-4.943-4.734-4.943h-5.224c.411-1.406.531-2.867.364-4.254-.714-5.934-5.989-11.238-13.177-11.238-5.75 0-9.823 3.717-12.729 7.244-5.183 6.713-4.292 6.703-9.787 0-2.91-3.528-6.988-7.244-13.457-7.244z"/><path d="m37.489 43.244h15.246v39.695h-15.246z"/></svg>