<svg id="Layer_1" enable-background="new 0 0 34 34" height="512" viewBox="0 0 34 34" width="512" xmlns="http://www.w3.org/2000/svg"><g><g><g><path d="m9.2 33h-7.2c-.5 0-1-.5-1-1v-7.3c0-.6.5-1 1-1h7v8.3c0 .3.1.7.2 1z"/></g></g><g><g><path d="m23 20v12c0 .5-.5 1-1 1h-10c-.5 0-1-.5-1-1v-12c0-.6.5-1 1-1h10c.5 0 1 .4 1 1z"/></g></g><g><g><path d="m33 26v6c0 .5-.5 1-1 1h-7.2c.1-.3.2-.7.2-1v-7h7c.5 0 1 .4 1 1z"/></g></g><g><g><path d="m25.1 8-3.3 3.2.8 4.6c.1.4-.1.8-.4 1s-.8.2-1.1.1l-4.1-2.2-4.1 2.1c-.3.2-.7.2-1-.1-.3-.2-.5-.6-.4-1l.8-4.6-3.4-3.1c-.2-.2-.3-.6-.2-1s.4-.6.8-.7l4.6-.7 2-4.1c.3-.7 1.5-.7 1.8 0l2 4.1 4.6.7c.4.1.7.3.8.7s0 .8-.2 1z"/></g></g></g></svg>