<svg id="Layer_1" enable-background="new 0 0 512 512" height="512" viewBox="0 0 512 512" width="512" xmlns="http://www.w3.org/2000/svg"><path d="m497 206.571h-96.4c-8.284 0-15 6.716-15 15v19.429h-18.2v-122.715c0-8.284-6.716-15-15-15h-33.2v-19.428c0-8.284-6.716-15-15-15h-96.4c-8.284 0-15 6.716-15 15v19.428h-18.2v-53.856c0-8.284-6.716-15-15-15h-33.2v-19.429c0-8.284-6.716-15-15-15h-96.4c-8.284 0-15 6.716-15 15v68.856c0 8.284 6.716 15 15 15h96.4c8.284 0 15-6.716 15-15v-19.427h18.2v107.715h-18.2v-19.429c0-8.284-6.716-15-15-15h-96.4c-8.284 0-15 6.716-15 15v68.856c0 8.284 6.716 15 15 15h96.4c8.284 0 15-6.716 15-15v-19.428h33.2c8.284 0 15-6.716 15-15v-53.858h18.2v19.43c0 8.284 6.716 15 15 15h96.4c8.284 0 15-6.716 15-15v-19.43h18.2v245.43h-18.2v-19.429c0-8.284-6.716-15-15-15h-96.4c-8.284 0-15 6.716-15 15v19.429h-18.2v-53.858c0-8.284-6.716-15-15-15h-33.2v-19.428c0-8.284-6.716-15-15-15h-96.4c-8.284 0-15 6.716-15 15v68.856c0 8.284 6.716 15 15 15h96.4c8.284 0 15-6.716 15-15v-19.429h18.2v107.715h-18.2v-19.428c0-8.284-6.716-15-15-15h-96.4c-8.284 0-15 6.716-15 15v68.857c0 8.284 6.716 15 15 15h96.4c8.284 0 15-6.716 15-15v-19.429h33.2c8.284 0 15-6.716 15-15v-53.856h18.2v19.429c0 8.284 6.716 15 15 15h96.4c8.284 0 15-6.716 15-15v-19.429h33.2c8.284 0 15-6.716 15-15v-122.715h18.2v19.429c0 8.284 6.716 15 15 15h96.4c8.284 0 15-6.716 15-15v-68.857c0-8.285-6.716-15.001-15-15.001z"/></svg>