<?xml version="1.0" standalone="no"?>
<!DOCTYPE svg PUBLIC "-//W3C//DTD SVG 20010904//EN"
 "http://www.w3.org/TR/2001/REC-SVG-20010904/DTD/svg10.dtd">
<svg version="1.0" xmlns="http://www.w3.org/2000/svg"
 width="305.000000pt" height="286.000000pt" viewBox="0 0 305.000000 286.000000"
 preserveAspectRatio="xMidYMid meet">

<g transform="translate(0.000000,286.000000) scale(0.100000,-0.100000)"
fill="#EEBC42" stroke="none">
<path d="M1567 2553 c-100 -211 -157 -418 -157 -567 l0 -72 45 -13 c61 -18
127 -79 155 -143 l22 -52 13 37 c7 20 25 53 39 72 29 37 119 95 149 95 15 0
17 11 17 83 0 96 -27 231 -71 360 -34 99 -135 317 -148 317 -4 0 -33 -53 -64
-117z"/>
<path d="M670 2426 c0 -1 12 -37 26 -81 77 -237 176 -421 299 -554 l56 -60 35
21 c54 32 167 37 226 10 l46 -20 -19 41 c-28 62 -26 161 5 220 l23 47 -46 43
c-135 126 -335 235 -563 307 -49 16 -88 27 -88 26z"/>
<path d="M2358 2135 c-198 -68 -385 -172 -510 -285 l-58 -51 22 -42 c29 -54
32 -185 6 -233 l-17 -32 49 19 c67 25 133 24 202 -5 l58 -24 54 58 c100 109
198 280 269 470 44 120 53 160 35 159 -7 0 -57 -16 -110 -34z"/>
<path d="M785 1789 c-155 -15 -332 -72 -522 -168 l-98 -48 95 -48 c201 -101
400 -161 571 -172 l97 -6 12 39 c27 82 83 140 170 177 26 11 30 16 14 16 -56
2 -159 100 -184 176 -10 30 -35 47 -65 44 -5 -1 -46 -5 -90 -10z"/>
<path d="M1970 1414 c-33 -94 -96 -161 -179 -190 -20 -7 -28 -13 -18 -14 59
-1 164 -97 190 -173 l14 -42 84 2 c161 5 343 56 546 153 68 32 123 61 123 64
0 9 -179 96 -273 133 -119 46 -268 80 -382 89 l-94 7 -11 -29z"/>
<path d="M749 1258 c-125 -132 -232 -331 -318 -597 -6 -19 -9 -37 -5 -40 10
-10 234 71 337 123 115 58 204 116 280 183 69 61 71 66 48 111 -37 73 -36 148
4 244 7 16 5 16 -27 0 -52 -27 -182 -24 -231 6 l-38 22 -50 -52z"/>
<path d="M1260 1046 c-23 -72 -103 -141 -192 -170 -14 -4 -18 -17 -18 -58 0
-67 24 -213 49 -298 39 -136 144 -379 171 -395 12 -7 116 203 149 300 35 106
60 217 71 313 13 115 8 138 -31 146 -68 13 -146 89 -175 171 l-11 30 -13 -39z"/>
<path d="M1805 1030 c-50 -23 -161 -26 -212 -5 -19 8 -36 15 -38 15 -1 0 7
-26 18 -57 22 -68 19 -129 -12 -199 l-21 -46 53 -50 c112 -107 320 -223 527
-292 57 -19 106 -33 108 -31 2 2 -10 48 -28 102 -39 119 -122 296 -185 394
-43 67 -150 190 -164 188 -3 0 -24 -9 -46 -19z"/>
</g>
</svg>
